<svg preserveAspectRatio="none" overflow="visible" style="display: block;" width="14" height="16" viewBox="0 0 14 16" fill="none" xmlns="http://www.w3.org/2000/svg">
<g id="Container">
<path id="Symbol" d="M2 1C2 0.708333 1.90625 0.46875 1.71875 0.28125V0.28125C1.53125 0.09375 1.29167 0 1 0C0.708333 0 0.46875 0.09375 0.28125 0.28125C0.09375 0.46875 0 0.708333 0 1V2V11.5V15C0 15.2917 0.09375 15.5312 0.28125 15.7188C0.46875 15.9062 0.708333 16 1 16C1.29167 16 1.53125 15.9062 1.71875 15.7188C1.90625 15.5312 2 15.2917 2 15V11L4 10.5C5.33333 10.1875 6.61458 10.3229 7.84375 10.9062C9.28125 11.6146 10.7604 11.6979 12.2812 11.1562L13.3438 10.75C13.7604 10.5625 13.9792 10.25 14 9.8125V2.0625C13.9792 1.6875 13.8229 1.41667 13.5312 1.25C13.2604 1.0625 12.9479 1.04167 12.5938 1.1875L12.3125 1.34375C11.5625 1.71875 10.7917 1.90625 10 1.90625C9.20833 1.90625 8.44792 1.71875 7.71875 1.34375C6.57292 0.802083 5.38542 0.677083 4.15625 0.96875L2 1.5V1V1V1" fill="#ED1C24"/>
</g>
</svg>
