<svg preserveAspectRatio="none" overflow="visible" style="display: block;" width="12" height="12" viewBox="0 0 12 12" fill="none" xmlns="http://www.w3.org/2000/svg">
<g id="Container">
<path id="Symbol" d="M5.4375 2.8125C5.46875 2.46875 5.65625 2.28125 6 2.25C6.34375 2.28125 6.53125 2.46875 6.5625 2.8125V5.69531L8.55469 7.03125C8.83594 7.25 8.88281 7.50781 8.69531 7.80469C8.49219 8.08594 8.24219 8.13281 7.94531 7.94531L5.69531 6.44531C5.52344 6.35156 5.4375 6.19531 5.4375 5.97656V2.8125V2.8125V2.8125M6 0C7.125 0.015625 8.13281 0.289062 9.02344 0.820312V0.820312C9.92969 1.35156 10.6484 2.07031 11.1797 2.97656V2.97656C11.7109 3.86719 11.9844 4.875 12 6C11.9844 7.125 11.7109 8.13281 11.1797 9.02344C10.6484 9.92969 9.92969 10.6484 9.02344 11.1797C8.13281 11.7109 7.125 11.9844 6 12C4.875 11.9844 3.86719 11.7109 2.97656 11.1797C2.07031 10.6484 1.35156 9.92969 0.820312 9.02344C0.289062 8.13281 0.015625 7.125 0 6C0.015625 4.875 0.289062 3.86719 0.820312 2.97656C1.35156 2.07031 2.07031 1.35156 2.97656 0.820312C3.86719 0.289062 4.875 0.015625 6 0V0V0M1.125 6C1.15625 7.375 1.63281 8.52344 2.55469 9.44531V9.44531C3.47656 10.3672 4.625 10.8438 6 10.875C7.375 10.8438 8.52344 10.3672 9.44531 9.44531C10.3672 8.52344 10.8438 7.375 10.875 6C10.8438 4.625 10.3672 3.47656 9.44531 2.55469C8.52344 1.63281 7.375 1.15625 6 1.125C4.625 1.15625 3.47656 1.63281 2.55469 2.55469C1.63281 3.47656 1.15625 4.625 1.125 6V6V6" fill="#94A3B8"/>
</g>
</svg>
