<svg preserveAspectRatio="none" overflow="visible" style="display: block;" width="25" height="20" viewBox="0 0 25 20" fill="none" xmlns="http://www.w3.org/2000/svg">
<g id="Container">
<path id="Symbol" d="M8.75 10C10.1562 9.97396 11.3411 9.49219 12.3047 8.55469V8.55469C13.2422 7.59115 13.724 6.40625 13.75 5C13.724 3.59375 13.2422 2.40885 12.3047 1.44531C11.3411 0.507812 10.1562 0.0260417 8.75 0C7.34375 0.0260417 6.15885 0.507812 5.19531 1.44531C4.25781 2.40885 3.77604 3.59375 3.75 5C3.77604 6.40625 4.25781 7.59115 5.19531 8.55469C6.15885 9.49219 7.34375 9.97396 8.75 10V10V10M10.7422 11.875H6.75781C4.85677 11.9271 3.26823 12.5911 1.99219 13.8672C0.716146 15.1432 0.0520833 16.7318 0 18.6328C0 19.0234 0.130208 19.349 0.390625 19.6094C0.651042 19.8698 0.976562 20 1.36719 20H16.1328C16.5234 20 16.849 19.8698 17.1094 19.6094C17.3698 19.349 17.5 19.0234 17.5 18.6328C17.4479 16.7318 16.7839 15.1432 15.5078 13.8672C14.2318 12.5911 12.6432 11.9271 10.7422 11.875V11.875V11.875M18.7109 12.5H15.8203C16.7318 13.2552 17.4479 14.1536 17.9688 15.1953C18.4896 16.263 18.75 17.4089 18.75 18.6328C18.75 19.1536 18.6198 19.6094 18.3594 20H23.75C24.1146 20 24.4141 19.8698 24.6484 19.6094C24.8828 19.375 25 19.0755 25 18.7109C24.9479 16.9661 24.3359 15.5078 23.1641 14.3359C21.9922 13.1641 20.5078 12.5521 18.7109 12.5V12.5V12.5M16.875 10C18.125 9.97396 19.1536 9.54427 19.9609 8.71094V8.71094C20.7943 7.90365 21.224 6.875 21.25 5.625C21.224 4.375 20.7943 3.34635 19.9609 2.53906C19.1536 1.70573 18.125 1.27604 16.875 1.25C15.8854 1.27604 15.013 1.57552 14.2578 2.14844C14.7266 3.00781 14.974 3.95833 15 5C14.974 6.40625 14.5573 7.64323 13.75 8.71094C14.5833 9.54427 15.625 9.97396 16.875 10V10V10" fill="#A855F7"/>
</g>
</svg>
